<svg width="248" height="52" viewBox="0 0 248 52" fill="none" xmlns="http://www.w3.org/2000/svg">
<path d="M20.6047 51.6114C20.2914 50.2192 19.6649 47.748 19.3517 46.7387H9.81507C9.50182 47.748 8.87533 50.2192 8.56208 51.6114H0C3.61974 40.1257 5.29039 35.3226 9.3626 25.1247H19.839C23.9112 35.2878 25.547 40.1257 29.2016 51.6114H20.6395H20.6047ZM11.0332 40.9958H18.1683C17.159 37.4457 15.2795 31.5636 14.5834 29.893C13.9221 31.5636 12.0078 37.4805 10.9984 40.9958H11.0332Z" fill="#00539B"/>
<path d="M38.5987 51.6106C34.1436 51.6106 31.7072 49.0698 31.7072 44.4755V25.1586H39.7124V42.9441C39.7124 45.1716 40.3389 45.7633 42.6709 45.7633H50.4324L51.6158 51.6454H38.5639L38.5987 51.6106Z" fill="#00539B"/>
<path d="M92.0251 25.1247H84.0199V51.6114H92.0251V25.1247Z" fill="#00539B"/>
<path d="M54.8182 51.6114V25.1247H65.8862C74.0306 25.1247 79.7039 28.4312 79.7039 38.1418C79.7039 47.8525 75.1444 51.5766 66.2343 51.5766H54.8182V51.6114ZM62.8234 45.8686H65.0857C69.9932 45.8686 71.9423 43.6758 71.9423 38.1418C71.9423 32.6078 69.5756 30.8327 64.8073 30.8327H62.8234V45.8686Z" fill="#00539B"/>
<path d="M122.305 51.6121L121.122 35.5321L117.328 47.157H113.256L109.358 35.5321L108.244 51.6121H101.561L104.137 25.1254H110.75L115.448 38.3165L120.008 25.1254H126.725L129.301 51.6121H122.305Z" fill="#00539B"/>
<path d="M141.657 51.9955C135.531 51.9955 131.494 49.5591 131.494 41.1363C131.494 32.7134 135.531 30.277 141.657 30.277C147.782 30.277 151.82 32.7134 151.82 41.1363C151.82 49.5591 147.782 51.9955 141.657 51.9955ZM141.657 34.2796C139.081 34.2796 138.281 36.1939 138.281 41.1015C138.281 46.009 139.081 47.9233 141.657 47.9233C144.232 47.9233 145.033 46.009 145.033 41.1015C145.033 36.1939 144.232 34.2796 141.657 34.2796Z" fill="#00539B"/>
<path d="M168.074 51.9935C165.498 51.9935 163.306 51.0886 161.496 49.6964L160.939 51.6107H155.126V22.6875H161.739V33.512C163.723 31.5281 166.369 30.2403 168.735 30.2403C172.146 30.2403 175.731 32.781 175.731 41.1691C175.731 49.5572 171.833 51.9935 168.074 51.9935ZM165.707 35.2522C164.385 35.2522 162.679 36.4356 161.739 37.6886V46.0766C162.853 46.8771 164.28 47.5733 165.533 47.5733C167.726 47.5733 168.909 46.181 168.909 41.3083C168.909 36.4356 167.83 35.287 165.707 35.287V35.2522Z" fill="#00539B"/>
<path d="M182.309 28.1873C180.256 28.1873 178.55 26.5514 178.55 24.4631C178.55 22.3748 180.256 20.7042 182.309 20.7042C184.363 20.7042 186.033 22.3748 186.033 24.4631C186.033 26.5514 184.363 28.1873 182.309 28.1873ZM178.968 51.6112V30.6584H185.581V51.6112H178.968Z" fill="#00539B"/>
<path d="M189.131 51.6107V22.6875H195.744V51.6107H189.131Z" fill="#00539B"/>
<path d="M217.96 40.9526C217.96 41.3097 217.96 42.024 217.92 42.4208H205.152C205.231 46.2698 207.14 47.5396 209.646 47.5396C211.118 47.5396 213.306 47.1824 215.533 46.0714L216.886 49.9601C215.693 50.7934 212.431 51.9838 208.374 51.9838C203.004 51.9838 198.389 49.3649 198.389 41.4684C198.389 33.4133 203.043 30.2388 208.374 30.2388C213.982 30.2388 217.96 33.5323 217.96 40.9526ZM211.198 38.9685C211.118 34.6434 209.567 34.2069 208.254 34.2069C206.942 34.2069 205.231 34.9608 205.152 38.9685H211.198Z" fill="#00539B"/>
<path d="M204.348 22.4996C205.398 22.3283 206.47 22.237 207.576 22.237C212.664 22.237 217.021 23.9728 220.181 27.2504C222.428 29.5802 225.097 33.8399 225.097 40.9433C225.097 41.4115 225.097 41.914 225.074 42.4165H228.245C228.268 41.9026 228.268 41.4001 228.268 40.9433C228.268 32.7778 225.109 27.7986 222.462 25.0463C218.687 21.1406 213.542 19.0736 207.576 19.0736C206.481 19.0736 205.409 19.1535 204.348 19.302V22.4996Z" fill="#E11B22"/>
<path d="M204.348 19.2787C205.398 19.1303 206.481 19.0503 207.576 19.0503C213.542 19.0503 218.687 21.1174 222.462 25.0231C225.109 27.764 228.268 32.7546 228.268 40.92C228.268 41.3768 228.268 41.8793 228.245 42.3933H231.416C231.439 41.8793 231.439 41.3768 231.439 40.92C231.439 31.6925 227.801 25.9824 224.744 22.819C220.42 18.3423 214.318 15.8755 207.576 15.8755C206.481 15.8755 205.409 15.944 204.348 16.0811V19.2787Z" fill="#F47D20"/>
<path d="M204.348 16.0791C205.409 15.9535 206.481 15.8735 207.576 15.8735C214.329 15.8735 220.42 18.3403 224.744 22.817C227.801 25.9804 231.439 31.6905 231.439 40.9181C231.439 41.3749 231.439 41.8774 231.416 42.3913H234.588C234.599 41.8659 234.61 41.3749 234.61 40.9181C234.61 30.6284 230.481 24.1989 227.025 20.6129C222.097 15.5195 215.185 12.6987 207.576 12.6987C206.493 12.6987 205.409 12.7672 204.348 12.8814V16.0791Z" fill="#FFC20E"/>
<path d="M204.348 9.68406C205.409 9.58128 206.481 9.52418 207.576 9.52418C216.063 9.52418 223.774 12.6762 229.306 18.4091C233.173 22.4176 237.781 29.5781 237.781 40.9298C237.781 41.3866 237.781 41.8776 237.759 42.403H240.93C240.941 41.9005 240.952 41.398 240.952 40.9298C240.952 28.5274 235.854 20.636 231.576 16.205C225.451 9.85536 216.919 6.34936 207.576 6.34936C206.493 6.34936 205.421 6.39504 204.348 6.49782V9.68406Z" fill="#E11B22"/>
<path d="M204.348 6.50009C205.409 6.40872 206.481 6.35162 207.576 6.35162C216.93 6.35162 225.451 9.84621 231.588 16.2073C235.865 20.6383 240.964 28.5183 240.964 40.932C240.964 41.4003 240.964 41.9027 240.941 42.4052H244.112C244.124 41.9027 244.135 41.4003 244.135 40.932C244.135 27.4676 238.557 18.8568 233.869 14.0032C227.139 7.02542 217.797 3.1768 207.576 3.1768C206.493 3.1768 205.409 3.22248 204.348 3.31385V6.50009Z" fill="#F47D20"/>
<path d="M204.348 3.31186C205.409 3.2205 206.493 3.17482 207.576 3.17482C217.797 3.17482 227.139 7.02343 233.869 14.0012C238.546 18.8548 244.135 27.4656 244.135 40.93C244.135 41.3983 244.123 41.9008 244.112 42.4032H247.283C247.295 41.9008 247.295 41.3983 247.295 40.93C247.295 26.4035 241.226 17.0732 236.139 11.7971C228.804 4.19122 218.664 0 207.576 0C206.493 0 205.409 0.0456809 204.348 0.125622V3.31186Z" fill="#FFC20E"/>
</svg>
