<?xml version="1.0" encoding="UTF-8"?>
<svg version="1.1" xmlns="http://www.w3.org/2000/svg" width="375" height="110">
<path d="M0 0 C123.75 0 247.5 0 375 0 C375 36.3 375 72.6 375 110 C251.25 110 127.5 110 0 110 C0 73.7 0 37.4 0 0 Z " fill="#FDFCFD" transform="translate(0,0)"/>
<path d="M0 0 C0.33 7.92 0.66 15.84 1 24 C2.65 23.01 4.3 22.02 6 21 C12.61464003 20.05989111 19.48386335 20.12258296 25.34765625 23.59375 C30.21066337 27.73247946 32.63757393 33.22720399 33.23828125 39.48046875 C33.44387096 46.97908286 32.49046815 53.06160252 27.38671875 58.8203125 C21.94318475 63.81725945 16.56621847 65.44705377 9.23828125 65.25 C3.04825074 64.55861788 -1.08096467 61.66047444 -5 57 C-9.01898195 51.20576222 -9.60449826 46.87194432 -9.56640625 39.90234375 C-9.57260483 38.94985245 -9.57880341 37.99736115 -9.58518982 37.01600647 C-9.59226398 35.01157651 -9.5891562 33.0070875 -9.57641602 31.00268555 C-9.56252382 27.94274713 -9.59668849 24.88585377 -9.63476562 21.82617188 C-9.63571669 19.87239509 -9.63385868 17.91861449 -9.62890625 15.96484375 C-9.64216446 15.05532455 -9.65542267 14.14580536 -9.66908264 13.20872498 C-9.60626208 8.90878493 -9.37001032 5.86537405 -6.71069336 2.37719727 C-4 0 -4 0 0 0 Z " fill="#091E43" transform="translate(256,12)"/>
<path d="M0 0 C5.75070545 3.205011 9.60552611 7.75407834 11.6875 14 C12.32929564 21.69102643 12.54322119 28.67102594 7.6875 35 C2.29295289 40.39454711 -3.12364941 43.121491 -10.75 43.4375 C-17.00499831 43.23185622 -21.52466582 41.67607245 -26.06640625 37.31640625 C-31.938788 30.73650862 -32.94911587 25.53028853 -32.68359375 16.70703125 C-32.06458925 10.52350206 -29.87633166 7.2645517 -25.3046875 3.2265625 C-17.5904138 -2.83668583 -9.14302774 -4.12821555 0 0 Z " fill="#0C2146" transform="translate(344.3125,35)"/>
<path d="M0 0 C3.25 1.375 3.25 1.375 6 3 C6.78375 3.391875 7.5675 3.78375 8.375 4.1875 C8.91125 4.455625 9.4475 4.72375 10 5 C10.78375 4.360625 11.5675 3.72125 12.375 3.0625 C16.27266717 0.00004722 18.68756856 -0.4142501 23.55078125 -0.3359375 C27.75257913 0.24038565 31.05081879 1.96872167 34 5 C39.19048577 12.46990544 38.45948691 20.29048277 38.25 29 C38.22990336 30.45700669 38.21165818 31.91404015 38.1953125 33.37109375 C38.15156901 36.9146255 38.08271767 40.45713877 38 44 C34.7 44 31.4 44 28 44 C27.9906543 43.08186523 27.98130859 42.16373047 27.97167969 41.21777344 C27.92760069 37.80294722 27.86596268 34.38936892 27.79248047 30.97509766 C27.76429912 29.49897804 27.74307034 28.02270831 27.72900391 26.54638672 C27.70753302 24.42076943 27.66086957 22.29695121 27.609375 20.171875 C27.58842773 18.8940918 27.56748047 17.61630859 27.54589844 16.29980469 C27.24912096 12.94659816 27.24912096 12.94659816 25.18457031 10.55175781 C22.96254229 8.6561601 22.96254229 8.6561601 19.4375 9 C15.56704202 10.12595141 14.90302694 10.57278782 13 14 C12.49566229 17.28735828 12.49566229 17.28735828 12.48828125 20.953125 C12.47033005 21.61334656 12.45237885 22.27356812 12.43388367 22.95379639 C12.37991191 25.05246689 12.34592957 27.15091177 12.3125 29.25 C12.27931505 30.67711464 12.24482429 32.10419956 12.20898438 33.53125 C12.1241953 37.02061652 12.05732112 40.51006191 12 44 C9.03 44 6.06 44 3 44 C2.99589111 43.11739502 2.99178223 42.23479004 2.98754883 41.32543945 C2.96050016 38.0352396 2.91135049 34.74688602 2.84741211 31.45727539 C2.82428497 30.03649298 2.80984874 28.61554042 2.80444336 27.19458008 C2.79511339 25.14557534 2.75404834 23.0992265 2.70703125 21.05078125 C2.6913208 19.82012939 2.67561035 18.58947754 2.65942383 17.3215332 C1.82410531 13.11401436 0.36527013 11.5885044 -3 9 C-6.63825863 8.74588432 -6.63825863 8.74588432 -10 10 C-13.41879614 13.32284912 -13.41362086 16.32290451 -13.51171875 20.953125 C-13.52966995 21.61334656 -13.54762115 22.27356812 -13.56611633 22.95379639 C-13.62008809 25.05246689 -13.65407043 27.15091177 -13.6875 29.25 C-13.72068495 30.67711464 -13.75517571 32.10419956 -13.79101562 33.53125 C-13.8758047 37.02061652 -13.94267888 40.51006191 -14 44 C-16.97 44 -19.94 44 -23 44 C-23 29.81 -23 15.62 -23 1 C-20.03 1 -17.06 1 -14 1 C-13.67 1.99 -13.34 2.98 -13 4 C-12.34 3.34 -11.68 2.68 -11 2 C-7.27529611 -0.48313592 -4.30793951 -0.71940051 0 0 Z " fill="#081D43" transform="translate(203,33)"/>
<path d="M0 0 C4.57627119 3.15254237 4.57627119 3.15254237 6 6 C6.66511746 10.75083902 6.62413755 14.02478507 4 18.125 C1.19114738 21.00526413 -1.90033361 23.60702583 -4.9609375 26.21484375 C-6.89483032 27.90792616 -8.70168496 29.66473328 -10.5 31.5 C-12.97110952 34.01634722 -15.52249032 36.37716813 -18.1875 38.6875 C-18.85136719 39.26628906 -19.51523437 39.84507813 -20.19921875 40.44140625 C-21.62643606 41.67667676 -23.06180195 42.90253166 -24.5 44.125 C-26.16188429 45.92822269 -26.16188429 45.92822269 -26.5625 48.375 C-25.74368031 52.19615856 -23.5561346 54.06044521 -21 57 C-21 57.99 -21 58.98 -21 60 C-27.01893877 59.69905306 -30.70630309 56.95797575 -35 53 C-39.69718291 47.63179095 -41.51430131 42.67719995 -41.3984375 35.62109375 C-39.71971705 24.57774646 -31.39930341 15.0288457 -22.77734375 8.484375 C-7.61896732 -2.48444587 -7.61896732 -2.48444587 0 0 Z " fill="#D91B3B" transform="translate(52,12)"/>
<path d="M0 0 C7.09551012 0.35477551 11.72886625 4.54956622 16.375 9.5625 C20.12458173 15.18687259 21.03083277 20.32280398 20 27 C14.87542846 41.78916272 3.13270876 52.16158453 -10.3125 59.5 C-14.04926491 61.02003996 -16.05319368 61.77220124 -20 61 C-22.91549692 59.1496495 -25.42983944 57.14032113 -27 54 C-27.90607735 47.43093923 -27.90607735 47.43093923 -25.71875 43.9765625 C-23.896824 41.8813476 -21.98947964 39.93662819 -20 38 C-19.35160156 37.32839844 -18.70320313 36.65679687 -18.03515625 35.96484375 C-12.83655408 30.62212191 -7.31600714 25.65384035 -1.49609375 20.99609375 C-0.67238281 20.31675781 0.15132812 19.63742188 1 18.9375 C1.763125 18.32777344 2.52625 17.71804687 3.3125 17.08984375 C5.26268179 15.04516894 5.26268179 15.04516894 5.40625 11.953125 C4.98627643 8.90024019 4.63188871 7.92662297 2.5 5.8125 C0 3 0 3 0 0 Z " fill="#FA4E07" transform="translate(54,38)"/>
<path d="M0 0 C3.63 0 7.26 0 11 0 C12.67121904 3.62296414 14.33715302 7.24819591 16 10.875 C16.47695312 11.90753906 16.95390625 12.94007812 17.4453125 14.00390625 C17.89648438 14.99003906 18.34765625 15.97617187 18.8125 16.9921875 C19.44091797 18.35899658 19.44091797 18.35899658 20.08203125 19.75341797 C21 22 21 22 21 24 C21.66 24 22.32 24 23 24 C23.23460937 23.20335938 23.46921875 22.40671875 23.7109375 21.5859375 C25.33483055 17.06856229 27.44537895 12.89569499 29.625 8.625 C30.25535156 7.37783203 30.25535156 7.37783203 30.8984375 6.10546875 C31.92864639 4.06846481 32.96382401 2.0339751 34 0 C37.3 0 40.6 0 44 0 C42.30057125 5.80597867 39.65411369 11.06762953 36.984375 16.47265625 C36.4909259 17.47332626 35.99747681 18.47399628 35.48907471 19.50498962 C34.44572312 21.6149097 33.39999628 23.72365667 32.35205078 25.83129883 C30.75687579 29.0486321 29.18116575 32.27504571 27.60546875 35.50195312 C26.58713178 37.55528023 25.56763861 39.60803441 24.546875 41.66015625 C23.84809235 43.10250389 23.84809235 43.10250389 23.13519287 44.57398987 C20.42386407 49.96121922 18.07144032 53.64657346 13 57 C10.125 57.3125 10.125 57.3125 8 57 C7.16931473 54.64650092 6.83481118 53.43882432 7.72851562 51.06469727 C8.11716797 50.40526123 8.50582031 49.7458252 8.90625 49.06640625 C9.32003906 48.33486328 9.73382813 47.60332031 10.16015625 46.84960938 C11.05168229 45.32777703 11.94490606 43.80693795 12.83984375 42.28710938 C13.46052734 41.18786133 13.46052734 41.18786133 14.09375 40.06640625 C14.48240234 39.40584229 14.87105469 38.74527832 15.27148438 38.06469727 C16.47666589 34.64907391 15.47093127 32.06490844 14.04785156 28.84692383 C13.47502441 27.787677 13.47502441 27.787677 12.890625 26.70703125 C12.46765137 25.91611084 12.04467773 25.12519043 11.60888672 24.31030273 C11.1604541 23.48602783 10.71202148 22.66175293 10.25 21.8125 C9.34053091 20.11230796 8.43167082 18.41179 7.5234375 16.7109375 C6.86939941 15.49229004 6.86939941 15.49229004 6.20214844 14.24902344 C4.7293315 11.49362343 3.28855576 8.72375731 1.875 5.9375 C1.50117188 5.20402344 1.12734375 4.47054687 0.7421875 3.71484375 C0 2 0 2 0 0 Z " fill="#091E44" transform="translate(130,34)"/>
<path d="M0 0 C1.19367188 -0.01675781 2.38734375 -0.03351562 3.6171875 -0.05078125 C7.41079715 0.34209815 9.8475402 1.41317696 13.125 3.3125 C12.795 5.9525 12.465 8.5925 12.125 11.3125 C9.36223823 10.78981534 6.7989124 10.20380413 4.125 9.3125 C2.73060336 9.24584624 1.33330125 9.22711801 -0.0625 9.25 C-1.320625 9.270625 -2.57875 9.29125 -3.875 9.3125 C-4.205 10.9625 -4.535 12.6125 -4.875 14.3125 C0.06576694 16.82779953 4.98938182 19.14368855 10.14453125 21.1875 C12.60197777 22.58344595 13.70416791 23.87304059 15.125 26.3125 C15.92393471 30.34712028 16.05275262 34.50853657 14.140625 38.2265625 C11.85200438 41.09440191 9.51672877 43.0052712 6.125 44.3125 C-2.18981983 45.19313363 -8.78269494 44.85157524 -15.875 40.3125 C-15.26222388 37.35074877 -14.62127478 35.93191217 -12.875 33.3125 C-8.125 34.1875 -8.125 34.1875 -5.875 35.3125 C0.00665736 35.77838282 0.00665736 35.77838282 5.125 33.3125 C5.15643382 30.88877441 5.15643382 30.88877441 4.125 28.3125 C1.08292716 26.59914727 1.08292716 26.59914727 -2.625 25.375 C-12.15452331 21.64881967 -12.15452331 21.64881967 -14.875 16.3125 C-15.75351824 11.68180571 -15.55384248 8.45198559 -13.125 4.375 C-8.88777916 0.4908809 -5.73774761 0.01850886 0 0 Z " fill="#0B1F44" transform="translate(110.875,32.6875)"/>
<path d="M0 0 C3.4812511 2.32083406 4.99212405 4.09421919 6.8125 7.875 C7.71315784 13.52182104 7.05497145 18.0671975 3.8125 22.875 C1.59468615 25.35373312 0.00547407 26.65889749 -3.30078125 27.2578125 C-8.71118358 27.53060589 -12.01146442 26.54176295 -16.1875 22.875 C-18.31092638 19.58078031 -18.48532935 16.81544307 -18.5 12.9375 C-18.51675781 11.91785156 -18.53351563 10.89820313 -18.55078125 9.84765625 C-18.01324221 5.44908408 -16.36263885 2.82163963 -12.9375 0.0625 C-8.3154061 -1.93340418 -4.70023542 -1.65890662 0 0 Z " fill="#F7F9FB" transform="translate(274.1875,42.125)"/>
<path d="M0 0 C3.11886578 1.69095133 5.39018854 3.78037709 7 7 C8.04817082 17.84108101 8.04817082 17.84108101 5.953125 22.15625 C3.49372469 25.10753037 1.3960732 26.84263265 -2.42578125 27.2734375 C-10.25299519 27.54881986 -10.25299519 27.54881986 -14.0625 24.75 C-18.04411039 19.09868203 -18.71334607 14.86595596 -18 8 C-16.71866686 4.83038644 -15.4799767 3.42179771 -12.9375 1.1875 C-8.59576638 -0.56766891 -4.61229552 -0.81046726 0 0 Z " fill="#F8F9FB" transform="translate(339,42)"/>
<path d="M0 0 C3.3 0 6.6 0 10 0 C10 14.19 10 28.38 10 43 C6.7 43 3.4 43 0 43 C0 28.81 0 14.62 0 0 Z " fill="#102447" transform="translate(295,34)"/>
<path d="M0 0 C0.66 0.33 1.32 0.66 2 1 C2 11.23 2 21.46 2 32 C-0.97 32 -3.94 32 -7 32 C-7 22.76 -7 13.52 -7 4 C-6.67 4 -6.34 4 -6 4 C-6 12.58 -6 21.16 -6 30 C-4.02 30 -2.04 30 0 30 C0 20.1 0 10.2 0 0 Z " fill="#1C2C49" transform="translate(239,45)"/>
<path d="M0 0 C0.66 0.33 1.32 0.66 2 1 C0.8718689 2.09671021 0.8718689 2.09671021 -0.27905273 3.21557617 C-3.07160147 5.93562422 -5.85080872 8.66897174 -8.6262207 11.40649414 C-9.82836025 12.58854132 -11.03406848 13.76697067 -12.2434082 14.94165039 C-13.98303098 16.6326524 -15.70932434 18.33633122 -17.43359375 20.04296875 C-17.97527695 20.56400681 -18.51696014 21.08504486 -19.07505798 21.62187195 C-22.06431214 24.60932145 -23.69420883 26.72235953 -24 31 C-24.66 30.67 -25.32 30.34 -26 30 C-26.3125 27.8359375 -26.3125 27.8359375 -26 25 C-23.875 22.3515625 -23.875 22.3515625 -21 19.625 C-20.49887695 19.14385742 -19.99775391 18.66271484 -19.48144531 18.16699219 C-16.03472727 14.88324995 -12.48057185 11.72670697 -8.859375 8.63671875 C-5.75863008 5.90728152 -2.87902091 2.95999337 0 0 Z " fill="#FDDBE3" transform="translate(51,33)"/>
<path d="M0 0 C3.0625 0.1875 3.0625 0.1875 5.0625 2.1875 C4.50694444 6.74305556 4.50694444 6.74305556 3.0625 8.1875 C0.125 8.375 0.125 8.375 -2.9375 8.1875 C-3.5975 7.5275 -4.2575 6.8675 -4.9375 6.1875 C-4.21574268 0.26908996 -4.21574268 0.26908996 0 0 Z " fill="#162748" transform="translate(299.9375,16.8125)"/>
<path d="M0 0 C0 2 0 2 -2 4.1875 C-4.99092175 7.07528652 -8.15778094 9.76157745 -11.328125 12.44921875 C-13.10326363 13.91350467 -13.10326363 13.91350467 -14 16 C-14.66 16 -15.32 16 -16 16 C-13.54199486 10.57543694 -6.47895251 0 0 0 Z " fill="#CC2F49" transform="translate(33,19)"/>
<path d="M0 0 C0.33 0.66 0.66 1.32 1 2 C0.319375 3.36125 0.319375 3.36125 -0.375 4.75 C-3.02594126 10.4271299 -2.75239046 16.84391446 -3 23 C-5.4495066 18.61253035 -5.78687186 14.94277763 -5 10 C-3.60281069 6.49972434 -1.90054185 3.2512841 0 0 Z " fill="#C83B53" transform="translate(16,35)"/>
<path d="M0 0 C4.75 1.875 4.75 1.875 7 3 C7.66 2.01 8.32 1.02 9 0 C10.5 1.3125 10.5 1.3125 12 3 C12 3.99 12 4.98 12 6 C7.01208429 5.52496041 3.9767259 4.0298864 0 1 C0 0.67 0 0.34 0 0 Z " fill="#C5334B" transform="translate(19,66)"/>
<path d="M0 0 C5.75 0.75 5.75 0.75 8 3 C7.01 3.33 6.02 3.66 5 4 C4.67 4.99 4.34 5.98 4 7 C2 5.1875 2 5.1875 0 3 C0 2.01 0 1.02 0 0 Z " fill="#E8602A" transform="translate(54,38)"/>
<path d="M0 0 C0 0.33 0 0.66 0 1 C-0.69867188 1.12117187 -1.39734375 1.24234375 -2.1171875 1.3671875 C-3.48230469 1.61855469 -3.48230469 1.61855469 -4.875 1.875 C-5.77992187 2.03742187 -6.68484375 2.19984375 -7.6171875 2.3671875 C-10.16505988 2.83044703 -10.16505988 2.83044703 -12 5 C-14.125 4.625 -14.125 4.625 -16 4 C-5.62642369 -1.92482916 -5.62642369 -1.92482916 0 0 Z " fill="#C83C53" transform="translate(52,12)"/>
<path d="M0 0 C2 3.75 2 3.75 2 6 C1.38125 5.814375 0.7625 5.62875 0.125 5.4375 C-2.04160178 4.76313824 -2.04160178 4.76313824 -4 6 C-4 4.35 -4 2.7 -4 1 C-2.68 0.67 -1.36 0.34 0 0 Z " fill="#343E55" transform="translate(362,33)"/>
</svg>
